<?xml version="1.0" encoding="utf-8"?>
<!-- Generator: Adobe Illustrator 24.3.0, SVG Export Plug-In . SVG Version: 6.00 Build 0)  -->
<svg version="1.1" id="Layer_1" xmlns="http://www.w3.org/2000/svg" xmlns:xlink="http://www.w3.org/1999/xlink" x="0px" y="0px"
	 viewBox="0 0 100 125" style="enable-background:new 0 0 100 125;" xml:space="preserve">
<style type="text/css">
	.st0{fill:#FFFFFF;}
</style>
<circle class="st0" cx="50" cy="62.5" r="49.6"/>
<path d="M50,20.8c23,0,41.7,18.7,41.7,41.7S73,104.2,50,104.2S8.3,85.5,8.3,62.5S27,20.8,50,20.8z M50,12.5c-27.6,0-50,22.4-50,50
	s22.4,50,50,50s50-22.4,50-50S77.6,12.5,50,12.5z M50,18.1c0,0-19.8,12.3-19.8,44.4S50,106.9,50,106.9s44.4-1.6,44.4-44.4
	S50,18.1,50,18.1z"/>
</svg>
